<?xml version="1.0" encoding="utf-8" ?>
<svg baseProfile="full" height="200mm" version="1.1" viewBox="0,0,200,200" width="200mm" xmlns="http://www.w3.org/2000/svg" xmlns:ev="http://www.w3.org/2001/xml-events" xmlns:xlink="http://www.w3.org/1999/xlink"><defs /><rect fill="#1a1a1a" height="200" width="200" x="0" y="0" /><text alignment-baseline="middle" fill="#e1ed5e" style="dominant-baseline: central; font-size:9.0px; font-family:Arial;" text-anchor="middle" x="100.0" y="100.0">2022</text><line stroke="#e1ed5e" stroke-width="0.3" x1="100.0" x2="100.0" y1="15.0" y2="10.0" /><path d="M 100.0 14.0 a86.0,86.0 0 0,1 42.46469731375804,11.215312516191453" fill="none" id="id13" stroke="none" /><text fill="#e1ed5e" style="font-size:6.75px; font-family:Arial;" text-anchor="middle"><textPath startOffset="22.20632615414155" xlink:href="#id13">January</textPath></text><path d="M 104.66035177308747 79.52364482259891 l 5.5749447255015765 -24.49483512231136 a46.12124511965153,46.12124511965153 0 0,0 0.7725886457566058,0.18284677111257153 l -5.995757058220706 24.39524243905792" fill="#ecff1a" stroke="none" /><path d="M 106.0581310904928 79.89281104454417 l 3.5407347404275873 -11.75184580912282 a33.27365807017078,33.27365807017078 0 0,0 0.5469787366307147,0.16994895602722138 l -3.7424988497690204 11.689156718213077" fill="#ff5d08" stroke="none" /><path d="M 106.40334571778207 80.00007090966166 l 4.557734506144371 -14.23542800169922 a35.94725239701469,35.94725239701469 0 0,0 0.5876813924325036,0.19374931533006362 l -4.802098720819291 14.154864962109919" fill="#ff850c" stroke="none" /><path d="M 107.08798089147638 80.2323363322302 l 21.26394267442914 -59.302991003309366 a84.0,84.0 0 0,0 1.3568706969096942,0.49974692877470117 l -22.28159569711141 58.92818080672834" fill="#4dd2ff" stroke="none" /><path d="M 108.43124777332544 80.76684994638697 l 9.324734762132326 -21.27135006726249 a44.225438899365216,44.225438899365216 0 0,0 0.6945876460793089,0.3116412300518765 l -9.689504526678416 21.107688506694082" fill="#fff917" stroke="none" /><path d="M 109.08828744355905 81.06846463323043 l 4.829457677804249 -10.060096514053864 a32.15926535815782,32.15926535815782 0 0,0 0.4969812209789652,0.2438665267686327 l -5.001910165793646 9.9754748271504" fill="#ff4d07" stroke="none" /><path d="M 110.05341064243156 81.56283822128135 l 18.890964989935696 -34.64453905876807 a60.46026665958407,60.46026665958407 0 0,0 0.9094258002877993,0.5060944732457379 l -19.48451487929553 34.31422918796215" fill="#41ff2d" stroke="none" /><line stroke="#e1ed5e" stroke-width="0.3" x1="143.23703022742887" x2="145.7803849466894" y1="26.81831364943548" y2="22.513508569990506" /><path d="M 143.74570117128098 25.957352633546492 a86.0,86.0 0 0,1 28.547481713284135,27.462654790039103" fill="none" id="id14" stroke="none" /><text fill="#e1ed5e" style="font-size:6.75px; font-family:Arial;" text-anchor="middle"><textPath startOffset="19.985693538727396" xlink:href="#id14">February</textPath></text><path d="M 110.99172775467656 82.1063720568725 l 11.679531812736577 -19.013316329465393 a43.3140686834347,43.3140686834347 0 0,0 0.6319333846398443,0.3957166274877904 l -12.005084349748685 18.80945536065466" fill="#ffed16" stroke="none" /><path d="M 113.06298171725822 83.55741782278167 l 12.972948417860364 -16.329255835952797 a41.85526280842474,41.85526280842474 0 0,0 0.5602558156018212,0.4530212397029707 l -13.252107632026677 16.103528498985696" fill="#ffd914" stroke="none" /><path d="M 113.89432698308785 84.25364557470407 l 18.481916313789725 -20.945440904753763 a48.93372021991448,48.93372021991448 0 0,0 0.6267920512004251,0.5627400922721533 l -18.83971935258614 20.62420180371231" fill="#c8ff1d" stroke="none" /><path d="M 114.16331599549186 84.49514656593476 l 25.290910228384593 -27.686444080610713 a58.498924331359056,58.498924331359056 0 0,0 0.7376216175916995,0.6855389046435282 l -25.76373972977114 27.247000589892544" fill="#57ff2a" stroke="none" /><path d="M 114.94478906791727 85.2469230424477 l 25.802396041538387 -25.471402290130065 a57.256805928129396,57.256805928129396 0 0,0 0.6863611523012306,0.707355500295011 l -26.237021457542728 25.02348259428494" fill="#65ff29" stroke="none" /><path d="M 115.4437574822437 85.77008943001954 l 22.59794451914984 -20.82179352677615 a51.728068311598626,51.728068311598626 0 0,0 0.5977211778313112,0.6600186535249151 l -22.953009337597187 20.429722085981687" fill="#a6ff21" stroke="none" /><path d="M 115.9244219780498 86.31012108654704 l 33.840083994150625 -29.091583540022086 a65.62590635042893,65.62590635042893 0 0,0 0.7290394015163555,0.8629527005309205 l -34.3358340091541 28.50477188986206" fill="#34ff5d" stroke="none" /><path d="M 116.60985879189232 87.15038557335679 l 28.67672202353638 -22.184705218706412 a57.25624817401928,57.25624817401928 0 0,0 0.596348526102723,0.7847247571626914 l -29.054346489863217 21.687795685662685" fill="#65ff29" stroke="none" /><path d="M 117.04232023915458 87.72973835380427 l 29.88776939235019 -21.518827560975925 a57.82850389099891,57.82850389099891 0 0,0 0.5746704275082631,0.8128305654325078 l -30.253752439662335 21.00117049521162" fill="#5eff29" stroke="none" /><path d="M 117.45458315368197 88.32363383020206 l 41.72763086406506 -27.913992163382442 a71.20344745159491,71.20344745159491 0 0,0 0.6727144546910294,1.0245902667803288 l -42.20194195411402 27.19158383262444" fill="#3cffa1" stroke="none" /><line stroke="#e1ed5e" stroke-width="0.3" x1="172.23445277983987" x2="176.4835382374775" y1="55.19839476539836" y2="52.563006222186495" /><path d="M 173.08426987136738 54.67131705675599 a86.0,86.0 0 0,1 12.851231095245387,41.99856678651699" fill="none" id="id15" stroke="none" /><text fill="#e1ed5e" style="font-size:6.75px; font-family:Arial;" text-anchor="middle"><textPath startOffset="22.20632615414155" xlink:href="#id15">March</textPath></text><path d="M 118.03404312379186 89.2402003453031 l 33.53332870565637 -20.007266044071333 a60.048365249262964,60.048365249262964 0 0,0 0.5219641971488165,0.8922060101077601 l -33.87275257727551 19.42708062160968" fill="#46ff2d" stroke="none" /><path d="M 118.73160827565052 90.50648371742162 l 47.25015974002368 -23.94723155883243 a73.97213885421368,73.97213885421368 0 0,0 0.5658515917785515,1.140722280293399 l -47.65537134475564 23.13034969004008" fill="#3fffc1" stroke="none" /><path d="M 119.04729006885535 91.15688171328212 l 22.787339881052837 -10.579517678333115 a46.123476136091995,46.123476136091995 0 0,0 0.3281304984918334,0.7229920580809438 l -22.966072696508014 10.185703611410108" fill="#ecff1a" stroke="none" /><path d="M 119.47837535516314 92.15188598940014 l 39.147649239078625 -15.773143749066461 a63.20581126663303,63.20581126663303 0 0,0 0.397915044495656,1.0126503855727582 l -39.41335783345598 15.096944358597918" fill="#31ff3d" stroke="none" /><path d="M 119.7369772167798 92.82701384747503 l 42.71487397468046 -15.523815838767117 a66.44831478579586,66.44831478579586 0 0,0 0.38143522060988905,1.0783687332833671 l -42.975762276100156 14.786249479057135" fill="#35ff67" stroke="none" /><path d="M 120.08093135843002 93.85539295169968 l 37.675946776735145 -11.528543371994969 a60.40030809274654,60.40030809274654 0 0,0 0.2956569278366985,0.9968081817334143 l -37.868809601683544 10.878305803515026" fill="#42ff2d" stroke="none" /><path d="M 120.28053869075195 94.5502522615342 l 38.04021681810003 -10.222094626595084 a60.38971076465432,60.38971076465432 0 0,0 0.2611241549867657,1.006217888410648 l -38.21053730495709 9.565780312635585" fill="#42ff2d" stroke="none" /><path d="M 120.45610955862082 95.25157060432595 l 57.458952129979075 -13.33781365204108 a79.98668030065602,79.98668030065602 0 0,0 0.2997809859397703,1.3438593788237763 l -57.680027502920886 12.34677610366734" fill="#48fbff" stroke="none" /><path d="M 120.67395015179393 96.31383870115 l 38.43989679760129 -6.853826137082483 a60.0461342328225,60.0461342328225 0 0,0 0.172670203296522,1.0191093141558483 l -38.55217886241804 6.191131034610797" fill="#46ff2d" stroke="none" /><path d="M 120.96714384426684 98.82574320788733 l 40.307636944354165 -2.257413637616718 a61.37080024434942,61.37080024434942 0 0,0 0.049992045333508164,1.055253064090146 l -40.34052259792117 1.5632494669035724" fill="#38ff2e" stroke="none" /><line stroke="#e1ed5e" stroke-width="0.3" x1="184.98032266829074" x2="189.97916517819016" y1="98.17113171792111" y2="98.06355123074" /><path d="M 185.9800911702706 98.14961562048488 a86.0,86.0 0 0,1 -9.607161424134198,41.387399972396054" fill="none" id="id16" stroke="none" /><text fill="#e1ed5e" style="font-size:6.75px; font-family:Arial;" text-anchor="middle"><textPath startOffset="21.466115282336823" xlink:href="#id16">April</textPath></text><path d="M 120.99513854157772 99.54816195383933 l 39.656058870224975 -0.8534411965356039 a60.66524129505193,60.66524129505193 0 0,0 0.013482107110765522,1.0442040535321149 l -39.66487398445345 0.17070088494302638" fill="#3fff2d" stroke="none" /><path d="M 120.99824983174949 100.27111621757518 l 17.41999770244337 0.22491607277259326 a38.42144962949191,38.42144962949191 0 0,0 -0.01423045841758722,0.6612334851526426 l -17.413545181340776 -0.5247393737153507" fill="#ffa90f" stroke="none" /><path d="M 120.9764740272857 100.99374915477107 l 6.238176401251444 0.2955302458360099 a27.24517277097554,27.24517277097554 0 0,0 -0.02622496963814955,0.4682644498272886 l -6.232165080725765 -0.40286641199872175" fill="#ff0000" stroke="none" /><path d="M 120.95626037817324 101.35467743843564 l 49.60295791990705 3.2064885032521278 a70.70648853948101,70.70648853948101 0 0,0 -0.088967083427317,1.2138851686888643 l -49.540414277815394 -4.059846808437762" fill="#3bff9b" stroke="none" /><path d="M 120.89721153311464 102.0752229133903 l 41.895159936252945 4.16044962372571 a63.10123237098616,63.10123237098616 0 0,0 -0.11664021967090504,1.0799435717968995 l -41.817337415080985 -4.880989517407401" fill="#31ff3c" stroke="none" /><path d="M 120.81339534386255 102.79330883721812 l 33.227855143995164 4.4594195171954265 a54.52576292794348,54.52576292794348 0 0,0 -0.13285059067866886,0.92915672178511 l -33.146170502299896 -5.030721710960946" fill="#84ff25" stroke="none" /><path d="M 120.70491114924044 103.5080841355445 l 10.93674199718716 1.8530391566680564 a32.09261374199888,32.09261374199888 0 0,0 -0.09697097697924147,0.5438647367018499 l -10.903224577868729 -2.0410226441031245" fill="#ff4c07" stroke="none" /><path d="M 120.64145759157962 103.86396538481128 l 43.45583003706023 8.134688274143013 a65.21065841544713,65.21065841544713 0 0,0 -0.21603380365065378,1.1015517105590984 l -43.309366300433915 -8.881503711770057" fill="#34ff57" stroke="none" /><path d="M 120.32669344350535 105.2749913415812 l 43.813253470231246 11.37000138976449 a66.26453480651244,66.26453480651244 0 0,0 -0.29601921335791387,1.101597614755141 l -43.61104618053155 -12.122489937695178" fill="#35ff65" stroke="none" /><path d="M 120.02730092923936 106.31721596034902 l 9.716307466573284 3.0648170125551872 a31.188215452444823,31.188215452444823 0 0,0 -0.1659031115720435,0.5105972752514312 l -9.662112103984994 -3.2316131877844136" fill="#ff3e05" stroke="none" /><path d="M 119.9155931802556 106.66101706037122 l 18.83996813093288 6.301260926609441 a40.8658070170779,40.8658070170779 0 0,0 -0.22886636219584858,0.6651927785105733 l -18.728710937793803 -6.6246264082093145" fill="#ffcb12" stroke="none" /><path d="M 119.67450827220406 107.3425965602758 l 28.857269257767307 10.769635665577812 a51.801412977078954,51.801412977078954 0 0,0 -0.31896281062264104,0.832711248847886 l -28.66761216755116 -11.264770481258843" fill="#a5ff21" stroke="none" /><path d="M 118.97047184881838 109.00673069616215 l 42.913695335359854 20.374406084517666 a68.50475418979575,68.50475418979575 0 0,0 -0.5149167788223221,1.0608810776859832 l -42.55662529992282 -21.110076118168926" fill="#38ff81" stroke="none" /><line stroke="#e1ed5e" stroke-width="0.3" x1="174.80103733775053" x2="179.2010983576182" y1="140.37084112569926" y2="142.7455964860345" /><path d="M 175.68104954172406 140.8457921977663 a86.0,86.0 0 0,1 -30.038265399797805,32.042727171017184" fill="none" id="id17" stroke="none" /><text fill="#e1ed5e" style="font-size:6.75px; font-family:Arial;" text-anchor="middle"><textPath startOffset="22.206326154141568" xlink:href="#id17">May</textPath></text><path d="M 118.48025628344425 109.97397251340804 l 52.12668182938203 28.1332728186887 a80.23404424849274,80.23404424849274 0 0,0 -0.6664147658118362,1.2097363732022774 l -51.634690654118685 -29.026379710288783" fill="#48f8ff" stroke="none" /><path d="M 117.94076556474637 110.91462005526583 l 17.85594826187194 10.863019769221964 a41.90071976839924,41.90071976839924 0 0,0 -0.3801699399639838,0.6129549919660883 l -17.666313682239995 -11.168771092553326" fill="#ffd914" stroke="none" /><path d="M 117.55443506779139 111.5257021239791 l 37.30393216047351 24.492614457506242 a65.62590635042893,65.62590635042893 0 0,0 -0.6281239705258598,0.9389601109566958 l -36.87680508453693 -25.131111482668747" fill="#34ff5d" stroke="none" /><path d="M 116.498646956653 112.99209946851258 l 22.99210529579837 18.105467665217933 a50.26507928076279,50.26507928076279 0 0,0 -0.5411444797391978,0.6751609432421792 l -22.67704290400432 -18.49855644203836" fill="#b8ff1f" stroke="none" /><path d="M 115.80600337817218 113.82643327865902 l 27.32938628245459 23.90660858031239 a57.310071445645534,57.310071445645534 0 0,0 -0.6559032618086842,0.736914267824795 l -26.913824170997568 -24.37349701787805" fill="#64ff29" stroke="none" /><path d="M 115.56566222782051 114.09645910891815 l 27.55276419843633 24.952129127326224 a58.17208042283074,58.17208042283074 0 0,0 -0.6785457168540062,0.7364273612383518 l -27.1191720735866 -25.42270774336591" fill="#5aff2a" stroke="none" /><path d="M 114.81725581225074 114.88116024355365 l 20.031295871120623 20.117687615119937 a49.389684204934795,49.389684204934795 0 0,0 -0.6076108222137804,0.5946750746621159 l -19.682035096531045 -20.459512792704626" fill="#c2ff1e" stroke="none" /><path d="M 113.20401910651253 116.32954008644616 l 15.855448987652148 19.60858945627899 a46.216899949536526,46.216899949536526 0 0,0 -0.6229212971689594,0.4948863523080461 l -15.515570197765838 -19.878609722592167" fill="#ebff1a" stroke="none" /><path d="M 112.34349029814194 116.9893568818739 l 28.544505724250914 39.28814160764487 a69.56281373668693,69.56281373668693 0 0,0 -0.9747826228878658,0.695481519346628 l -27.863995773514166 -39.77366738883572" fill="#39ff8d" stroke="none" /><line stroke="#e1ed5e" stroke-width="0.3" x1="143.8653032363475" x2="146.44561519142675" y1="172.8068346515853" y2="177.08958963109032" /><path d="M 144.38136562736335 173.6633856474863 a86.0,86.0 0 0,1 -40.68145358897372,12.25698825130547" fill="none" id="id18" stroke="none" /><text fill="#e1ed5e" style="font-size:6.75px; font-family:Arial;" text-anchor="middle"><textPath startOffset="21.466115282336833" xlink:href="#id18">June</textPath></text><path d="M 103.06178313531738 120.77559828337769 l 3.0639381180027216 20.79022082605941 a42.01478048391809,42.01478048391809 0 0,0 -0.7163948399453625,0.09928579701177888 l -2.7056146868705286 -20.839881188563794" fill="#ffdb14" stroke="none" /><line stroke="#e1ed5e" stroke-width="0.3" x1="102.19456741930631" x2="102.32365962044197" y1="184.97166512339345" y2="189.96999836594603" /><path d="M 102.22038585953345 185.97133177190398 a86.0,86.0 0 0,1 -42.740103519485714,-10.115201625700543" fill="none" id="id19" stroke="none" /><text fill="#e1ed5e" style="font-size:6.75px; font-family:Arial;" text-anchor="middle"><textPath startOffset="22.20632615414155" xlink:href="#id19">July</textPath></text><path d="M 93.42475214034765 119.94407469862007 l -6.133504228381188 18.604175706557193 a40.58916097846007,40.58916097846007 0 0,0 -0.6616618246481033,-0.22447161525474335 l 6.452835785966517 -18.495841104404327" fill="#ffc712" stroke="none" /><path d="M 92.7421414339146 119.70592522655815 l -7.736016335418876 21.004178859249905 a43.383509070144214,43.383509070144214 0 0,0 -0.6985360164062917,-0.2641265500539375 l 8.096422572585452 -20.867904059089334" fill="#ffee16" stroke="none" /><path d="M 91.07499286063937 119.00905698771935 l -10.880634052317136 23.17427757013907 a46.60147140846193,46.60147140846193 0 0,0 -0.723182342122222,-0.34717147193722786 l 11.2779290624396 -22.983551821702278" fill="#e6ff1a" stroke="none" /><path d="M 90.10565033884886 118.52300852407294 l -3.5972166831337082 6.734275375999899 a28.634817136331037,28.634817136331037 0 0,0 -0.43276370216116244,-0.23597727574246372 l 3.7126031971635114 -6.671357448497669" fill="#ff1602" stroke="none" /><line stroke="#e1ed5e" stroke-width="0.3" x1="58.666819895761336" x2="56.23545636021788" y1="174.27360380694188" y2="178.64263932499728" /><path d="M 58.180547188652646 175.14741091055294 a86.0,86.0 0 0,1 -31.652253787137756,-30.449443065178592" fill="none" id="id20" stroke="none" /><text fill="#e1ed5e" style="font-size:6.75px; font-family:Arial;" text-anchor="middle"><textPath startOffset="22.20632615414155" xlink:href="#id20">August</textPath></text><path d="M 87.95078237400918 117.19931262002967 l -12.994888075243239 18.549182976519216 a43.64816339539454,43.64816339539454 0 0,0 -0.6116410322310073,-0.43638963642019946 l 13.312256435323132 -18.322749078254798" fill="#fff116" stroke="none" /><path d="M 87.07902340077011 116.55440617244103 l -19.11481597006201 24.48997759958246 a52.0666250564394,52.0666250564394 0 0,0 -0.7017651477009444,-0.5575246755906629 l 19.533538610480313 -24.157319009986665" fill="#a1ff22" stroke="none" /><path d="M 86.51685102203217 116.09983520530335 l -10.24638389769474 12.23490836396754 a36.958739475711134,36.958739475711134 0 0,0 -0.484220246283929,-0.4126629988170687 l 10.455469620555725 -12.05672097492752" fill="#ff940d" stroke="none" /><path d="M 85.97065885151581 115.62618273729859 l -20.220531763677382 22.522064367841846 a51.26736341664231,51.26736341664231 0 0,0 -0.6515848758832538,-0.5952073351910546 l 20.60521618902749 -22.170664266064215" fill="#abff21" stroke="none" /><path d="M 85.44109423537348 115.13401014063109 l -19.823173462154486 20.606226391316376 a49.593264455127354,49.593264455127354 0 0,0 -0.6101153444677134,-0.597126276819654 l 20.174938758997992 -20.261950011574154" fill="#c0ff1e" stroke="none" /><path d="M 84.67929136418377 114.36230785411682 l -15.108096214838993 14.162995595377982 a41.70857347746407,41.70857347746407 0 0,0 -0.4865078519370902,-0.5280081868099886 l 15.349650474771812 -13.90083615376665" fill="#ffd714" stroke="none" /><path d="M 84.19399662182784 113.82643327865904 l -21.48866691243759 18.797390599223373 a49.550038511593314,49.550038511593314 0 0,0 -0.5560398917292069,-0.646800013974088 l 21.809049313737578 -18.424713486087754" fill="#c0ff1e" stroke="none" /><path d="M 83.72743513129214 113.27417163493432 l -21.702011527844196 17.70318497226567 a49.00678600833975,49.00678600833975 0 0,0 -0.5275979287736228,-0.6582595380351918 l 22.003527368672678 -17.326997600652216" fill="#c7ff1e" stroke="none" /><path d="M 83.28015986056508 112.70617746262583 l -22.512788922174526 17.10850635163155 a49.275902366471016,49.275902366471016 0 0,0 -0.5073980338182073,-0.6797425841011173 l 22.80394822268782 -16.718450888021128" fill="#c4ff1e" stroke="none" /><path d="M 82.6465618267979 111.8261652097733 l -23.52930056203165 16.034943216422718 a49.47362619850735,49.47362619850735 0 0,0 -0.4735259633319195,-0.7078570663348219 l 23.801829630774304 -15.627549235882075" fill="#c1ff1e" stroke="none" /><line stroke="#e1ed5e" stroke-width="0.3" x1="26.63291911575756" x2="22.317208475507996" y1="142.92168965132927" y2="145.44649492493687" /><path d="M 25.769776987707644 143.4266507060508 a86.0,86.0 0 0,1 -11.730757126820373,-40.83630448921669" fill="none" id="id21" stroke="none" /><text fill="#e1ed5e" style="font-size:6.75px; font-family:Arial;" text-anchor="middle"><textPath startOffset="21.46611528233685" xlink:href="#id21">September</textPath></text><path d="M 81.18737489456691 109.33194174019688 l -31.542912811901015 15.646759717321952 a56.21045921755066,56.21045921755066 0 0,0 -0.4225065681753107,-0.8704886727528777 l 31.807572636691045 -15.10148208860379" fill="#71ff27" stroke="none" /><path d="M 80.87730276802145 108.67885076344099 l -24.24988186337806 11.00582742958364 a47.63052774162705,47.63052774162705 0 0,0 -0.3324132609280734,-0.7495041488548313 l 24.435736209037415 -10.586774944236113" fill="#d9ff1c" stroke="none" /><path d="M 80.58989483394504 108.01547362559985 l -31.151746962078096 12.864227371759632 a54.70340761201561,54.70340761201561 0 0,0 -0.35191844569503916,-0.873432721593406 l 31.368568022030527 -12.32609528232342" fill="#82ff25" stroke="none" /><path d="M 80.20201598880116 107.00284435728193 l -38.16255843395305 13.498670209930498 a61.479562295822156,61.479562295822156 0 0,0 -0.344312392170746,-1.0007329807063843 l 38.38926165706703 -12.839764526134818" fill="#36ff2e" stroke="none" /><path d="M 79.86692584326677 105.97154293290107 l -37.4820828013411 11.117321921148637 a60.096053225677935,60.096053225677935 0 0,0 -0.28562040980986925,-0.9942821164257005 l 37.66789584803707 -10.470482329218342" fill="#45ff2d" stroke="none" /><path d="M 79.58551787078972 104.9243191809786 l -30.720675226658667 7.410347679346275 a52.60179012509627,52.60179012509627 0 0,0 -0.20474478837452767,-0.8820351896485076 l 30.84368058096375 -6.880443832349193" fill="#9bff22" stroke="none" /><path d="M 79.35854240842038 103.8639653848113 l -30.57266803144749 5.723032420105355 a52.10371570476216,52.10371570476216 0 0,0 -0.15743648232450688,-0.8829874017358206 l 30.666650956111184 -5.195926267636321" fill="#a1ff22" stroke="none" /><path d="M 79.18660465613746 102.79330883721812 l -42.37168591563019 5.68658802470985 a63.75157366338211,63.75157366338211 0 0,0 -0.1366059332376467,-1.0888836956806471 l 42.46329335811468 -4.956386574741794" fill="#32ff44" stroke="none" /><path d="M 79.10278846688536 102.07522291339032 l -30.660085052210732 3.0447368983186203 a51.81089479695095,51.81089479695095 0 0,0 -0.08049292190459531,-0.888232685850219 l 30.707952570392404 -2.516522823919835" fill="#a5ff21" stroke="none" /><path d="M 79.04373962182676 101.35467743843564 l -41.86103595952883 2.7060267404856537 a62.94840774481421,62.94840774481421 0 0,0 -0.06059128696867908,-1.0818981317501353 l 41.90141359738504 -1.9850568924000809" fill="#30ff3a" stroke="none" /><line stroke="#e1ed5e" stroke-width="0.3" x1="15.007084014347285" x2="10.007500721073583" y1="101.09737516637583" y2="101.16192664675087" /><path d="M 14.007167355692545 101.11028546245083 a86.0,86.0 0 0,1 10.666146001902534,-42.60595125391555" fill="none" id="id22" stroke="none" /><text fill="#e1ed5e" style="font-size:6.75px; font-family:Arial;" text-anchor="middle"><textPath startOffset="22.20632615414155" xlink:href="#id22">October</textPath></text><path d="M 79.00019446554 99.90962569577889 l -31.342144224680474 -0.13488336701287162 a52.342434463892054,52.342434463892054 0 0,0 0.011632465194496401,-0.9009472487401398 l 31.335178752368265 0.6743668738134834" fill="#9eff22" stroke="none" /><path d="M 79.05617556472873 98.46500227214037 l -31.43687461281607 -2.3040458179363954 a52.52119465618443,52.52119465618443 0 0,0 0.07384358964954842,-0.9010788326783071 l 31.392556539347023 2.844838567822481" fill="#9cff22" stroke="none" /><path d="M 79.16333360222342 97.38593545837743 l -38.90237880618588 -4.880498976212 a60.20732517064619,60.20732517064619 0 0,0 0.1378575752490788,-1.027199061047204 l 38.81260523187897 5.549416379323863" fill="#44ff2d" stroke="none" /><path d="M 79.26566170972629 96.67025291283419 l -50.12400034109115 -8.049460841059862 a71.76622134870254,71.76622134870254 0 0,0 0.20637278633217981,-1.218023867026172 l 49.978015693238746 8.911070496401862" fill="#3cffa8" stroke="none" /><path d="M 79.3925641242962 95.95851677861259 l -19.668221513197945 -3.8572866473813856 a41.042893947039914,41.042893947039914 0 0,0 0.1419316121962022,-0.6921089470547891 l 19.59891060508675 4.1952712505995775" fill="#ffce13" stroke="none" /><path d="M 79.54389044137918 95.25157060432595 l -32.699295685117896 -7.590411872017754 a54.568709994422456,54.568709994422456 0 0,0 0.22026841617175627,-0.913154789587406 l 32.56379446868533 8.152151893264556" fill="#84ff25" stroke="none" /><path d="M 79.81627453868168 94.20196356495316 l -25.578507038965032 -7.347757283473018 a47.612958487158366,47.612958487158366 0 0,0 0.2330633977878563,-0.7857739153193355 l 25.44823774406547 7.786960585538893" fill="#d9ff1c" stroke="none" /><line stroke="#e1ed5e" stroke-width="0.3" x1="26.266209847984243" x2="21.928928074336255" y1="57.711370442889674" y2="55.22380399835377" /><path d="M 25.398753493254645 57.213857153982495 a86.0,86.0 0 0,1 29.58750427330803,-30.492523968695096" fill="none" id="id23" stroke="none" /><text fill="#e1ed5e" style="font-size:6.75px; font-family:Arial;" text-anchor="middle"><textPath startOffset="21.46611528233685" xlink:href="#id23">November</textPath></text><line stroke="#e1ed5e" stroke-width="0.3" x1="56.762969772571076" x2="54.21961505331055" y1="26.818313649435495" y2="22.513508569990535" /><path d="M 56.25429882871897 25.957352633546506 a86.0,86.0 0 0,1 42.265352541879196,-11.944610805530505" fill="none" id="id24" stroke="none" /><text fill="#e1ed5e" style="font-size:6.75px; font-family:Arial;" text-anchor="middle"><textPath startOffset="22.20632615414155" xlink:href="#id24">December</textPath></text></svg>