<?xml version="1.0" encoding="utf-8" ?>
<svg baseProfile="full" height="200mm" version="1.1" viewBox="0,0,200,200" width="200mm" xmlns="http://www.w3.org/2000/svg" xmlns:ev="http://www.w3.org/2001/xml-events" xmlns:xlink="http://www.w3.org/1999/xlink"><defs /><rect fill="#1a1a1a" height="200" width="200" x="0" y="0" /><text alignment-baseline="middle" fill="#e1ed5e" style="dominant-baseline: central; font-size:9.0px; font-family:Arial;" text-anchor="middle" x="100.0" y="100.0">2022</text><line stroke="#e1ed5e" stroke-width="0.3" x1="100.0" x2="100.0" y1="15.0" y2="10.0" /><path d="M 100.0 14.0 a86.0,86.0 0 0,1 42.46469731375804,11.215312516191453" fill="none" id="id1" stroke="none" /><text fill="#e1ed5e" style="font-size:6.75px; font-family:Arial;" text-anchor="middle"><textPath startOffset="22.20632615414155" xlink:href="#id1">January</textPath></text><path d="M 100.0 79.0 l 0.0 -42.383669062084905 a63.383669062084905,63.383669062084905 0 0,0 1.0910456700292277,0.009390974537352735 l -0.7295651907566992 42.37738946415611" fill="#33ff2f" stroke="none" /><path d="M 103.59715602781102 79.31037775812273 l 6.060769079292543 -34.859489490123515 a56.38243814867116,56.38243814867116 0 0,0 0.9547557185610186,0.17447550492205488 l -6.659919918956462 34.74999850385072" fill="#88ff25" stroke="none" /><path d="M 104.66035177308747 79.52364482259891 l 8.389754005205072 -36.862363878551335 a58.805050495702034,58.805050495702034 0 0,0 0.9850582786362233,0.2331314685966587 l -9.023035970803818 36.712486497813806" fill="#69ff28" stroke="none" /><path d="M 105.71112130821622 79.79150937346287 l 11.141159450904285 -39.42238383353053 a61.96644701494973,61.96644701494973 0 0,0 1.0239506327195473,0.2989192682659536 l -11.81810030134726 39.22476623634588" fill="#44ff2d" stroke="none" /><path d="M 107.08798089147638 80.2323363322302 l 21.26394267442914 -59.302991003309366 a84.0,84.0 0 0,0 1.3568706969096942,0.49974692877470117 l -22.28159569711141 58.92818080672834" fill="#4dd2ff" stroke="none" /><line stroke="#e1ed5e" stroke-width="0.3" x1="143.23703022742887" x2="145.7803849466894" y1="26.81831364943548" y2="22.513508569990506" /><path d="M 143.74570117128098 25.957352633546492 a86.0,86.0 0 0,1 28.547481713284135,27.462654790039103" fill="none" id="id2" stroke="none" /><text fill="#e1ed5e" style="font-size:6.75px; font-family:Arial;" text-anchor="middle"><textPath startOffset="19.985693538727396" xlink:href="#id2">February</textPath></text><line stroke="#e1ed5e" stroke-width="0.3" x1="172.23445277983987" x2="176.4835382374775" y1="55.19839476539836" y2="52.563006222186495" /><path d="M 173.08426987136738 54.67131705675599 a86.0,86.0 0 0,1 12.851231095245387,41.99856678651699" fill="none" id="id3" stroke="none" /><text fill="#e1ed5e" style="font-size:6.75px; font-family:Arial;" text-anchor="middle"><textPath startOffset="22.20632615414155" xlink:href="#id3">March</textPath></text><path d="M 118.89224826269711 90.83032412892265 l 19.28755399333141 -9.361544269665623 a42.43940881084606,42.43940881084606 0 0,0 0.3133277425867457,0.6599481344244503 l -19.445839929759913 9.028153719600631" fill="#ffb410" stroke="none" /><path d="M 119.196687751892 91.48605970444005 l 19.573951833790822 -8.68126102872284 a42.412703786313045,42.412703786313045 0 0,0 0.29024283594208067,0.6699204822054794 l -19.72048537957558 8.343041401930757" fill="#ffb310" stroke="none" /><path d="M 120.18372546131832 94.20196356495316 l 25.955917740242757 -7.456173393332348 a48.00563251267568,48.00563251267568 0 0,0 0.22131334831221572,0.7961818655423142 l -26.080417859121336 7.008280224371081" fill="#f8ff18" stroke="none" /><path d="M 120.45610955862082 95.25157060432595 l 16.619287641749615 -3.8577967989025064 a38.061164024205205,38.061164024205205 0 0,0 0.14264891647338404,0.6394671219085306 l -16.683230945225038 3.5711515074440117" fill="#ff6f0a" stroke="none" /><path d="M 120.6074358757038 95.95851677861258 l 19.219799244618766 -3.769343097029469 a40.585929398079934,40.585929398079934 0 0,0 0.12854970063613558,0.6867176410330692 l -19.28183466916476 3.437947378533837" fill="#ff970d" stroke="none" /><path d="M 120.73433829027371 96.67025291283417 l 10.23253302231439 -1.6432522006917507 a31.363638832371223,31.363638832371223 0 0,0 0.08101393175973604,0.5337805884430302 l -10.259302847513426 1.4668724998566383" fill="#ff0000" stroke="none" /><line stroke="#e1ed5e" stroke-width="0.3" x1="184.98032266829074" x2="189.97916517819016" y1="98.17113171792111" y2="98.06355123074" /><path d="M 185.9800911702706 98.14961562048488 a86.0,86.0 0 0,1 -9.607161424134198,41.387399972396054" fill="none" id="id4" stroke="none" /><text fill="#e1ed5e" style="font-size:6.75px; font-family:Arial;" text-anchor="middle"><textPath startOffset="21.466115282336823" xlink:href="#id4">April</textPath></text><path d="M 120.99824983174949 100.27111621757518 l 17.2527765616298 0.2227570183961931 a38.25421455108193,38.25421455108193 0 0,0 -0.014168518229170996,0.6583553679862376 l -17.246385980715623 -0.5197022021725456" fill="#ff720a" stroke="none" /><path d="M 120.92983693683757 101.71520430193887 l 41.372486123872314 3.3904834708327245 a62.511179051383216,62.511179051383216 0 0,0 -0.09711678351178134,1.0716756134414605 l -41.30799474408345 -4.1021404728227555" fill="#3dff2e" stroke="none" /><path d="M 120.8583938346157 102.4346265915055 l 33.97612644619793 3.9657502671653377 a55.20678797358139,55.20678797358139 0 0,0 -0.11829629229240088,0.9429378423306577 l -33.90282864465868 -4.55000586378339" fill="#97ff23" stroke="none" /><path d="M 120.41448212921028 104.9243191809786 l 25.35571069385624 6.11622728055608 a47.082950387905775,47.082950387905775 0 0,0 -0.1968262063650049,0.7862228542891492 l -25.24667317319617 -6.551777974242626" fill="#fff817" stroke="none" /><path d="M 120.32669344350535 105.2749913415812 l 16.55099682169976 4.295158244584037 a38.09923624428687,38.09923624428687 0 0,0 -0.17019822104693497,0.6333708958079676 l -16.474610524311046 -4.579420073567554" fill="#ff700a" stroke="none" /><path d="M 120.13307415673323 105.97154293290107 l 24.794734216747806 7.354208241251787 a46.86239013963829,46.86239013963829 0 0,0 -0.23603744062601548,0.7713840130007331 l -24.664470003615655 -7.779919226804577" fill="#fff517" stroke="none" /><path d="M 119.79798401119884 107.00284435728193 l 34.134392895703066 12.07384754648278 a57.20683047346083,57.20683047346083 0 0,0 -0.33636455563139483,0.9255307942692909 l -33.921504079066445 -12.659626137758202" fill="#7dff26" stroke="none" /><line stroke="#e1ed5e" stroke-width="0.3" x1="174.80103733775053" x2="179.2010983576182" y1="140.37084112569926" y2="142.7455964860345" /><path d="M 175.68104954172406 140.8457921977663 a86.0,86.0 0 0,1 -30.038265399797805,32.042727171017184" fill="none" id="id5" stroke="none" /><text fill="#e1ed5e" style="font-size:6.75px; font-family:Arial;" text-anchor="middle"><textPath startOffset="22.206326154141568" xlink:href="#id5">May</textPath></text><path d="M 112.04921762599082 117.19931262002967 l 15.50424390243749 22.131091502572414 a48.02159858486361,48.02159858486361 0 0,0 -0.6810905965669104,0.4684603228343558 l -15.120996421247696 -22.394692614771863" fill="#f8ff18" stroke="none" /><path d="M 111.7513745106137 117.40417183066458 l 14.781198057460092 21.891440071352644 a47.41437041482318,47.41437041482318 0 0,0 -0.6803404499667394,0.45089255240711595 l -14.402182908753389 -22.142630644851078" fill="#fffd17" stroke="none" /><path d="M 111.1453310114006 117.79835938074945 l 14.049694853361403 22.436437099463745 a47.472393831891424,47.472393831891424 0 0,0 -0.6963087966298919,0.42772973429805816 l -13.661406856799202 -22.674955300590184" fill="#fffe18" stroke="none" /><line stroke="#e1ed5e" stroke-width="0.3" x1="143.8653032363475" x2="146.44561519142675" y1="172.8068346515853" y2="177.08958963109032" /><path d="M 144.38136562736335 173.6633856474863 a86.0,86.0 0 0,1 -40.68145358897372,12.25698825130547" fill="none" id="id6" stroke="none" /><text fill="#e1ed5e" style="font-size:6.75px; font-family:Arial;" text-anchor="middle"><textPath startOffset="21.466115282336833" xlink:href="#id6">June</textPath></text><path d="M 110.5260780823613 118.17145234162733 l 18.43669834312701 31.827769341792425 a57.78204381311354,57.78204381311354 0 0,0 -0.8649455582126447,0.4911386616455639 l -17.886104017993166 -32.140411169232614" fill="#76ff27" stroke="none" /><path d="M 108.59647513512805 119.15986991738527 l 13.950436722935782 31.092808238336485 a55.07898779169652,55.07898779169652 0 0,0 -0.8683578151718429,0.38066254748748374 l -13.413158233106186 -31.32833533911842" fill="#98ff23" stroke="none" /><path d="M 107.93186726928326 119.44442032107085 l 12.40234102316388 30.40347545319548 a53.8357942265436,53.8357942265436 0 0,0 -0.8610623159639511,0.3426344658230042 l -11.877157631158063 -30.612456763424554" fill="#a9ff21" stroke="none" /><path d="M 103.06178313531738 120.77559828337769 l 2.692464590324546 18.2696031196878 a39.466937042212976,39.466937042212976 0 0,0 -0.6729515118212317,0.09326494759028178 l -2.3775844873164838 -18.313242632770685" fill="#ff860c" stroke="none" /><line stroke="#e1ed5e" stroke-width="0.3" x1="102.19456741930631" x2="102.32365962044197" y1="184.97166512339345" y2="189.96999836594603" /><path d="M 102.22038585953345 185.97133177190398 a86.0,86.0 0 0,1 -42.740103519485714,-10.115201625700543" fill="none" id="id7" stroke="none" /><text fill="#e1ed5e" style="font-size:6.75px; font-family:Arial;" text-anchor="middle"><textPath startOffset="22.20632615414155" xlink:href="#id7">July</textPath></text><line stroke="#e1ed5e" stroke-width="0.3" x1="58.666819895761336" x2="56.23545636021788" y1="174.27360380694188" y2="178.64263932499728" /><path d="M 58.180547188652646 175.14741091055294 a86.0,86.0 0 0,1 -31.652253787137756,-30.449443065178592" fill="none" id="id8" stroke="none" /><text fill="#e1ed5e" style="font-size:6.75px; font-family:Arial;" text-anchor="middle"><textPath startOffset="22.20632615414155" xlink:href="#id8">August</textPath></text><line stroke="#e1ed5e" stroke-width="0.3" x1="26.63291911575756" x2="22.317208475507996" y1="142.92168965132927" y2="145.44649492493687" /><path d="M 25.769776987707644 143.4266507060508 a86.0,86.0 0 0,1 -11.730757126820373,-40.83630448921669" fill="none" id="id9" stroke="none" /><text fill="#e1ed5e" style="font-size:6.75px; font-family:Arial;" text-anchor="middle"><textPath startOffset="21.46611528233685" xlink:href="#id9">September</textPath></text><line stroke="#e1ed5e" stroke-width="0.3" x1="15.007084014347285" x2="10.007500721073583" y1="101.09737516637583" y2="101.16192664675087" /><path d="M 14.007167355692545 101.11028546245083 a86.0,86.0 0 0,1 10.666146001902534,-42.60595125391555" fill="none" id="id10" stroke="none" /><text fill="#e1ed5e" style="font-size:6.75px; font-family:Arial;" text-anchor="middle"><textPath startOffset="22.20632615414155" xlink:href="#id10">October</textPath></text><path d="M 79.81627453868168 94.20196356495316 l -31.328185670193367 -8.999426904998614 a53.5951668503863,53.5951668503863 0 0,0 0.2623460521682782,-0.8845004687028539 l 31.16863372091338 9.537356760448008" fill="#acff21" stroke="none" /><path d="M 80.02781315780177 93.51064311812611 l -34.9463297446728 -11.354750845094058 a57.74474560229758,57.74474560229758 0 0,0 0.3152937524390469,-0.9426881884464553 l 34.74569869846198 11.954612136462835" fill="#77ff27" stroke="none" /><path d="M 80.2630227832202 92.82701384747504 l -48.328467715100636 -17.563957534411426 a72.42113763774711,72.42113763774711 0 0,0 0.43589045204301485,-1.1679697003770706 l 48.018972674556 18.39325037181784" fill="#3cffa5" stroke="none" /><path d="M 80.52162464483688 92.15188598940014 l -41.18365867729659 -16.593480861707462 a65.40087104050909,65.40087104050909 0 0,0 0.42970961249250644,-1.0405759109113188 l 40.89192737791789 17.299931343072092" fill="#32ff47" stroke="none" /><path d="M 81.43458229118936 90.18545643968196 l -39.245605333386386 -20.747052888165076 a65.39209097945539,65.39209097945539 0 0,0 0.5346329712543485,-0.9905936990579919 l 38.882664262913565 21.41952757055554" fill="#32ff47" stroke="none" /><line stroke="#e1ed5e" stroke-width="0.3" x1="26.266209847984243" x2="21.928928074336255" y1="57.711370442889674" y2="55.22380399835377" /><path d="M 25.398753493254645 57.213857153982495 a86.0,86.0 0 0,1 29.58750427330803,-30.492523968695096" fill="none" id="id11" stroke="none" /><text fill="#e1ed5e" style="font-size:6.75px; font-family:Arial;" text-anchor="middle"><textPath startOffset="21.46611528233685" xlink:href="#id11">November</textPath></text><line stroke="#e1ed5e" stroke-width="0.3" x1="56.762969772571076" x2="54.21961505331055" y1="26.818313649435495" y2="22.513508569990535" /><path d="M 56.25429882871897 25.957352633546506 a86.0,86.0 0 0,1 42.265352541879196,-11.944610805530505" fill="none" id="id12" stroke="none" /><text fill="#e1ed5e" style="font-size:6.75px; font-family:Arial;" text-anchor="middle"><textPath startOffset="22.20632615414155" xlink:href="#id12">December</textPath></text></svg>